<svg width="24" height="19" viewBox="0 0 24 19" fill="none" xmlns="http://www.w3.org/2000/svg">
<g clip-path="url(#clip0_888_19545)">
<path d="M11.5128 0.633222C11.315 0.886403 11.1603 1.08527 11.0047 1.28336C10.8314 1.50382 10.6503 1.71904 10.4846 1.94473C10.1964 2.33772 10.1948 2.73603 10.4868 3.12592C10.7355 3.45752 11.0009 3.77654 11.2574 4.10233C11.3307 4.19557 11.3985 4.29307 11.4994 4.43055C11.3553 4.44343 11.2533 4.46027 11.1509 4.46056C10.3824 4.46308 9.61386 4.45262 8.8457 4.46453C6.75229 4.49716 4.97499 5.72724 4.22745 7.64987C3.06863 10.6295 5.03172 13.9435 8.20738 14.3364C8.77309 14.4064 9.3511 14.387 9.92339 14.3886C10.1377 14.3892 10.2834 14.4491 10.416 14.623C10.8441 15.1846 11.2888 15.7336 11.736 16.2988C11.7014 16.3625 11.6802 16.4184 11.6448 16.4634C11.2228 17.0003 10.7977 17.5348 10.3758 18.0719C10.2901 18.1809 10.2052 18.2635 10.0476 18.2635C8.93778 18.2635 7.83162 18.2714 6.73815 18.0097C3.25133 17.1752 0.558507 14.2105 0.0819651 10.6547C-0.488297 6.39936 1.97099 2.4295 6.03022 1.05516C6.89797 0.761213 7.80801 0.611355 8.7242 0.611535C9.56574 0.610115 10.4073 0.609437 11.2489 0.609501C11.3089 0.609404 11.3688 0.619764 11.5128 0.633222Z" fill="white"/>
<path d="M12.7365 18.2431C12.8168 18.1219 12.8632 18.0407 12.9204 17.9677C13.1683 17.6506 13.421 17.3372 13.6686 17.0199C14.0506 16.5307 14.0515 16.1236 13.6686 15.6277C13.4225 15.3093 13.1683 14.9972 12.9199 14.6804C12.8631 14.6079 12.8158 14.5279 12.7377 14.4123C12.9017 14.4046 13.0185 14.3949 13.1355 14.3946C13.8429 14.3929 14.5506 14.3993 15.2579 14.3922C17.7675 14.3671 19.8212 12.556 20.1611 10.0733C20.5365 7.33271 18.5277 4.77175 15.7774 4.50618C15.2449 4.45477 14.7056 4.46406 14.1695 4.46668C13.9534 4.46774 13.8102 4.40249 13.6791 4.22841C13.2542 3.66463 12.8132 3.11296 12.3694 2.54502C12.4411 2.44414 12.4998 2.35409 12.5657 2.26957C12.9404 1.78845 13.316 1.308 13.6925 0.828231C13.783 0.71263 13.8674 0.608453 14.0433 0.605548C15.4508 0.582796 16.8523 0.606613 18.1885 1.13234C21.2914 2.35303 23.2367 4.58276 23.8487 7.8653C24.6878 12.3661 21.9693 16.6758 17.5636 17.9192C16.9535 18.091 16.3263 18.1951 15.6934 18.2297C14.733 18.2811 13.7679 18.2431 12.7365 18.2431Z" fill="white"/>
</g>
<defs>
<clipPath id="clip0_888_19545">
<rect width="24" height="17.6637" fill="white" transform="translate(-7.62939e-06 0.599976)"/>
</clipPath>
</defs>
</svg>
