<svg width="20" height="15" viewBox="0 0 20 15" fill="none" xmlns="http://www.w3.org/2000/svg">
<g clip-path="url(#clip0_5426_3771)">
<path d="M9.59398 0.0277473C9.42915 0.238731 9.3003 0.404453 9.17056 0.569529C9.02614 0.753242 8.87527 0.932599 8.73714 1.12067C8.49703 1.44816 8.49566 1.78009 8.73899 2.10499C8.94627 2.38133 9.16742 2.64718 9.38114 2.91867C9.44222 2.99637 9.49878 3.07762 9.58285 3.19219C9.46279 3.20292 9.37776 3.21695 9.29239 3.2172C8.65202 3.21929 8.01156 3.21058 7.37143 3.22051C5.62692 3.2477 4.14583 4.27276 3.52289 5.87495C2.5572 8.35795 4.19311 11.1196 6.83949 11.447C7.31092 11.5054 7.79259 11.4892 8.2695 11.4906C8.44805 11.4911 8.56948 11.5409 8.68002 11.6859C9.03679 12.1539 9.40737 12.6114 9.78004 13.0824C9.75115 13.1355 9.73348 13.1821 9.70403 13.2195C9.35234 13.667 8.99806 14.1124 8.64653 14.56C8.57513 14.6508 8.50437 14.7197 8.37302 14.7197C7.44816 14.7197 6.52636 14.7262 5.61514 14.5081C2.70945 13.8127 0.465433 11.3421 0.0683151 8.379C-0.406903 4.83286 1.64251 1.52465 5.02519 0.379361C5.74832 0.134406 6.50668 0.00952499 7.27017 0.00967454C7.97146 0.0084912 8.67278 0.00792625 9.37412 0.00798004C9.42407 0.00789936 9.47401 0.0165325 9.59398 0.0277473Z" fill="black"/>
<path d="M10.6137 14.7026C10.6807 14.6015 10.7193 14.5339 10.767 14.473C10.9736 14.2088 11.1842 13.9476 11.3905 13.6832C11.7088 13.2755 11.7096 12.9363 11.3905 12.5231C11.1854 12.2577 10.9736 11.9976 10.7666 11.7336C10.7193 11.6732 10.6798 11.6065 10.6148 11.5102C10.7515 11.5038 10.8488 11.4957 10.9462 11.4954C11.5358 11.4941 12.1255 11.4994 12.7149 11.4935C14.8063 11.4725 16.5177 9.96329 16.8009 7.89435C17.1137 5.61056 15.4397 3.47643 13.1479 3.25512C12.7041 3.21228 12.2546 3.22002 11.8079 3.2222C11.6278 3.22309 11.5085 3.16871 11.3993 3.02364C11.0452 2.55383 10.6777 2.0941 10.3079 1.62082C10.3676 1.53675 10.4165 1.46172 10.4714 1.39128C10.7836 0.990343 11.0967 0.589971 11.4105 0.190163C11.4858 0.0938287 11.5562 0.00701457 11.7028 0.00459411C12.8757 -0.0143662 14.0436 0.00548189 15.1571 0.443587C17.7428 1.46083 19.364 3.31894 19.874 6.05439C20.5731 9.80507 18.3078 13.3965 14.6364 14.4326C14.1279 14.5758 13.6053 14.6625 13.0778 14.6913C12.2775 14.7342 11.4732 14.7026 10.6137 14.7026Z" fill="black"/>
</g>
<defs>
<clipPath id="clip0_5426_3771">
<rect width="20" height="14.7198" fill="white"/>
</clipPath>
</defs>
</svg>
